<svg width="28" height="20" fill="none"     xmlns="http://www.w3.org/2000/svg"><path d="M23.959.946a20.637 20.637 0 00-2.913 1.487c-1.866 1.123-3.571 2.46-5.171 3.886a54.721 54.721 0 00-4.495 4.55L9.45 13.04 2.896 4.05.422 10.327 9.286 20c.861-1.595 1.69-3.169 2.502-4.536.202-.348.413-.675.615-1.008 0 0 1.04-1.673 1.314-2.094a50.541 50.541 0 013.579-4.888c1.303-1.557 2.72-3.044 4.327-4.35.8-.658 1.65-1.267 2.562-1.796.91-.53 1.877-.994 2.91-1.328-1.075.194-2.124.53-3.136.946z" fill="#FF6B09"/></svg>