<svg aria-hidden="true" style="position: absolute; width: 0; height: 0; overflow: hidden;" version="1.1" xmlns="http://www.w3.org/2000/svg" xmlns:xlink="http://www.w3.org/1999/xlink">
<defs>
<symbol id="icon-about-check" viewBox="0 0 45 32">
<path fill="#ff6b09" style="fill: var(--color1, #ff6b09)" d="M38.334 1.514c-1.813 0.756-3.344 1.553-4.8 2.46l0.14-0.081c-2.986 1.797-5.714 3.936-8.274 6.218-2.554 2.305-4.902 4.681-7.11 7.185l-0.082 0.095-3.088 3.474-10.486-14.384-3.958 10.043 14.182 15.477c1.378-2.552 2.704-5.070 4.003-7.258 0.323-0.557 0.661-1.080 0.984-1.613 0 0 1.664-2.677 2.102-3.35 1.923-2.97 3.808-5.521 5.832-7.951l-0.106 0.13c2.085-2.491 4.352-4.87 6.923-6.96 1.28-1.053 2.64-2.027 4.099-2.874 1.456-0.848 3.003-1.59 4.656-2.125-1.72 0.31-3.398 0.848-5.018 1.514z"></path>
</symbol>
<symbol id="icon-phone-number" viewBox="0 0 33 32">
<path fill="#ff6b09" style="fill: var(--color1, #ff6b09)" d="M4.818 0.002c-0.572 0.026-1.080 0.279-1.439 0.672l-0.001 0.002-2.685 2.953c0.004-0.009-0.011-0.008-0.086 0.099-0.039 0.053-0.071 0.113-0.092 0.179l-0.001 0.005c-1.092 3.48-0.36 7.308 1.423 10.948 1.785 3.641 4.63 7.125 7.897 9.984 3.266 2.859 6.953 5.096 10.467 6.206 3.516 1.109 6.923 1.095 9.449-0.737 0.029-0.021 0.054-0.043 0.077-0.067l0-0c0.066-0.066 0.068-0.075 0.057-0.065l2.681-2.95c0.333-0.369 0.537-0.86 0.537-1.399 0-0.608-0.26-1.156-0.675-1.538l-6.337-5.765c-0.369-0.334-0.86-0.538-1.4-0.538-0.608 0-1.156 0.26-1.538 0.674l-2.868 3.154c-2.328-0.673-4.318-1.816-6.231-3.556-1.913-1.741-3.24-3.615-4.13-5.869l2.866-3.153c0.334-0.369 0.538-0.861 0.538-1.4 0-0.608-0.259-1.155-0.674-1.537l-6.339-5.766c-0.367-0.334-0.856-0.538-1.394-0.538-0.037 0-0.074 0.001-0.11 0.003l0.005-0zM4.877 1.295c0.009-0 0.019-0.001 0.030-0.001 0.205 0 0.392 0.080 0.53 0.21l-0-0 6.337 5.763c0.16 0.14 0.26 0.345 0.26 0.573 0 0.203-0.079 0.387-0.209 0.524l0-0-3.169 3.482c-0.104 0.115-0.168 0.268-0.168 0.436 0 0.081 0.015 0.158 0.041 0.229l-0.001-0.005c0.961 2.624 2.513 4.778 4.647 6.719 2.135 1.942 4.423 3.283 7.126 3.992 0.050 0.014 0.107 0.021 0.166 0.021 0.191 0 0.362-0.082 0.482-0.213l0-0.001 3.169-3.482c0.14-0.16 0.345-0.26 0.573-0.26 0.203 0 0.387 0.079 0.524 0.209l6.338 5.763c0.16 0.14 0.26 0.345 0.26 0.573 0 0.203-0.080 0.388-0.209 0.524l0-0-2.649 2.913c-2.072 1.486-4.992 1.57-8.262 0.537-3.283-1.036-6.846-3.182-9.999-5.942s-5.898-6.131-7.585-9.574c-1.67-3.407-2.275-6.852-1.357-9.888l2.589-2.845c0.133-0.15 0.323-0.247 0.535-0.259l0.002-0z"></path>
</symbol>
<symbol id="icon-how-we-do-support" viewBox="0 0 33 32">
<path fill="currentColor" style="fill: currentColor" d="M1.993 12.558v2.831c0 0.152 0.069 0.295 0.189 0.39 1.864 1.471 4.246 2.36 6.836 2.362h0c0.741 0 1.482-0.077 2.207-0.224 1.433 0.652 3.108 1.032 4.872 1.032 0.006 0 0.012 0 0.019 0h-0.001c1.707 0 3.351-0.349 4.89-1.032 3.091 0.625 6.385-0.046 9.043-2.138 0.116-0.092 0.189-0.232 0.189-0.39v0-2.831c0-0.415-0.207-0.794-0.575-1.027l-3.867-2.176c0.846-1.073 1.476-2.602 1.586-3.913 0.321-2.256-1.519-4.646-4.166-4.646-1.113 0-2.171 0.459-2.947 1.227-0.027 0.027-0.058 0.049-0.084 0.077-0.024 0.025-0.043 0.054-0.067 0.080-0.015 0.017-0.029 0.035-0.044 0.053-0.757-1.381-2.211-2.233-3.925-2.233-0.167 0-0.329 0.011-0.491 0.028-0.010-0.001-0.019-0.006-0.029-0.006-0.092 0-0.287 0.025-0.391 0.055-0.015 0.004-0.027 0.015-0.041 0.021-1.296 0.262-2.369 1.054-3.002 2.135l-0.011 0.021c-0.77-0.894-1.904-1.457-3.169-1.457-0.003 0-0.007 0-0.010 0h0.001c-3.908 0-5.642 4.612-2.557 8.581l-3.903 2.167c-0.347 0.219-0.553 0.599-0.553 1.014zM20.997 16.828c-0.084 0.041-0.167 0.085-0.251 0.123l-0.002 0.001c-1.349 0.635-2.929 1.006-4.596 1.006-0.011 0-0.022-0-0.033-0h0.002c-0.007 0-0.016 0-0.025 0-2.509 0-4.823-0.837-6.677-2.248l0.027 0.020v-2.87c0-0.097 0.047-0.184 0.102-0.221l4.542-2.525c0.565 0.48 1.287 0.832 2.035 0.832 0.72 0 1.499-0.357 2.052-0.843l4.487 2.52c0.083 0.053 0.131 0.139 0.131 0.237v2.87c-0.52 0.395-1.108 0.76-1.729 1.069l-0.064 0.029zM29.154 12.381c0.056 0.037 0.092 0.099 0.092 0.169 0 0.003-0 0.005-0 0.008v-0 2.587c-1.969 1.477-4.337 2.148-6.737 1.98 0.419-0.265 0.772-0.515 1.111-0.782l-0.028 0.022c0.116-0.092 0.19-0.232 0.19-0.39v-3.115c0-0.435-0.219-0.835-0.611-1.087l-2.383-1.339 0.58-0.321c0.703 0.573 1.307 0.744 1.848 0.744 0.663 0 1.36-0.325 1.878-0.759l4.060 2.284zM23.216 1.788c1.381 0 2.593 0.902 3.021 2.142-0.889-0.115-1.664-0.531-2.235-1.14l-0.002-0.002c-0.091-0.097-0.22-0.158-0.363-0.158-0.18 0-0.338 0.096-0.425 0.24l-0.001 0.002c-0.546 0.916-1.456 1.567-2.524 1.757l-0.022 0.003-0.001-0.003c0-0.025 0.001-0.054 0.001-0.083 0-0.201-0.012-0.399-0.036-0.594l0.002 0.023-0.007-0.066c-0.034-0.24-0.076-0.446-0.13-0.647l0.009 0.038c0.563-0.902 1.609-1.513 2.713-1.513zM20.556 5.643c1.291-0.143 2.407-0.797 3.157-1.751l0.008-0.010c0.767 0.629 1.74 1.010 2.701 1.056-0.007 1.792-1.471 4.927-3.206 4.927-1.337 0-2.479-1.912-2.905-3.238 0.109-0.341 0.187-0.669 0.245-0.983zM20.657 9.373l-0.886 0.491-0.895-0.503c0.332-0.413 0.636-0.893 0.897-1.413 0.25 0.527 0.551 1.010 0.884 1.425zM19.32 6.465c-0.478 1.427-1.705 3.49-3.2 3.49-1.742 0-3.225-2.864-3.508-4.696 0.075-0.019 2.429 0.127 4.049-2.001 0.823 0.688 1.932 1.143 3.011 1.188 0.013 0.647-0.144 1.407-0.352 2.019zM16.149 0.991c2.78 0 3.309 2.393 3.353 2.443-1.017-0.113-1.908-0.58-2.561-1.274l-0.002-0.002c-0.091-0.097-0.219-0.157-0.362-0.157-0.181 0-0.339 0.097-0.426 0.242l-0.001 0.002c-0.533 0.901-1.379 1.569-2.385 1.86l-0.029 0.007c-0.342 0.097-0.734 0.153-1.14 0.153-0.009 0-0.019-0-0.028-0h0.001c0.136-1.821 1.596-3.273 3.58-3.273zM12.461 7.938c0.257 0.515 0.563 1.007 0.913 1.439l-0.875 0.487-0.907-0.51c0.321-0.411 0.61-0.876 0.849-1.369l0.020-0.046zM9.006 1.788c1.125 0 2.155 0.571 2.729 1.514-0.029 0.1-0.107 0.498-0.117 0.548-0.723-0.179-1.343-0.552-1.819-1.061l-0.002-0.002c-0.091-0.097-0.219-0.157-0.362-0.157-0.181 0-0.339 0.097-0.425 0.242l-0.001 0.002c-0.657 1.090-1.832 1.81-3.177 1.815h-0.001c0.158-1.627 1.518-2.9 3.174-2.9zM5.876 5.677c1.475-0.018 2.784-0.712 3.635-1.786l0.007-0.010c0.57 0.468 1.265 0.806 2.027 0.956l0.029 0.005c0.029 0.575 0.179 1.273 0.35 1.789-0.273 0.84-0.799 1.84-1.451 2.505-0.004 0.004-0.009 0.006-0.013 0.010-0.408 0.43-0.988 0.719-1.444 0.719-1.594 0-2.841-2.508-3.14-4.188zM2.985 12.558c0-0.075 0.033-0.139 0.067-0.162l4.116-2.284c0.247 0.206 0.304 0.229 0.353 0.265 0.485 0.323 0.929 0.483 1.534 0.483 0.645 0 1.233-0.273 1.749-0.694 0.029-0.023 0.060-0.045 0.088-0.068l0.587 0.33-2.447 1.361c-0.353 0.229-0.584 0.622-0.584 1.069 0 0.001 0 0.002 0 0.003v-0 3.115c0 0.152 0.070 0.295 0.19 0.389 0.317 0.249 0.727 0.539 1.083 0.761-2.434 0.167-4.803-0.528-6.737-1.98v-2.587z"></path>
<path fill="currentColor" style="fill: currentColor" d="M31.259 20.781c-0.312-0.2-0.693-0.319-1.102-0.319-0.329 0-0.641 0.077-0.917 0.215l0.012-0.005-6.12 2.956c-0.022-1.147-0.956-2.069-2.106-2.071l-3.51 0.001c-1.73-1.504-3.941-2.425-5.952-2.473-1.983-0.047-3.762-0.060-4.592-0.064v-1.002h-6.972v11.517h6.972v-1.379c1.911 1.097 6.939 3.845 9.325 3.845 0.053 0 0.107-0.001 0.157-0.004 4.196-0.235 14.091-7.199 14.743-7.661 0.622-0.367 1.033-1.033 1.034-1.795v-0c0-0.002 0-0.004 0-0.006 0-0.736-0.385-1.382-0.965-1.747l-0.009-0.005zM5.98 28.543h-4.988v-9.533h4.988v9.533zM30.687 23.485c-0.017 0.009-0.031 0.018-0.044 0.028l0.001-0.001c-0.103 0.073-10.281 7.271-14.245 7.493-0.035 0.002-0.077 0.003-0.12 0.003h-0c-2.093 0-7.195-2.753-9.307-4.001v-6.997c0.827 0.003 2.596 0.017 4.569 0.064 1.837 0.044 3.876 0.921 5.455 2.345l0.141 0.128 3.888-0.001c0.618 0.001 1.118 0.501 1.119 1.119v0c-0 0.618-0.501 1.119-1.119 1.119h-7.142v0.992h7.142c0.685 0 1.288-0.333 1.673-0.84l6.984-3.373c0.138-0.070 0.301-0.112 0.474-0.112 0.214 0 0.413 0.063 0.579 0.172l-0.004-0.003c0.323 0.202 0.508 0.537 0.508 0.918-0.001 0.404-0.221 0.756-0.548 0.943l-0.005 0.003zM16.611 12.159h-0.991v0.919h0.991v-0.92zM16.611 13.992h-0.991v0.92h0.991v-0.92zM16.611 15.827h-0.991v0.919h0.991v-0.92z"></path>
</symbol>
<symbol id="icon-advantages-methods" viewBox="0 0 31 32">
<path fill="#ff6b09" style="fill: var(--color1, #ff6b09)" d="M20.406 8.558h-7.116c-0.464 0.001-0.839 0.376-0.84 0.84v2.946l-5.287 2.219c-0.063 0.027-0.106 0.088-0.106 0.159 0 0.062 0.033 0.117 0.083 0.147l0.001 0 0.674 0.403v4.3c-0.348 0.082-0.603 0.389-0.603 0.756v0.415c0 0.095 0.077 0.172 0.172 0.172h1.207c0.095 0 0.172-0.077 0.172-0.172v0-0.414c0-0.369-0.259-0.677-0.604-0.756v-4.094l0.533 0.319c-0.017 0.123-0.002-0.214-0.008 2.002 0 0.729 1.866 1.119 3.765 1.141v3.356c0 0.463 0.376 0.839 0.839 0.839 0 0 0 0 0.001 0h7.116c0.463-0 0.839-0.376 0.839-0.839v-0c0 0.023-0.001-0.711 0-12.898 0-0.457-0.378-0.84-0.839-0.84zM8.419 20.328v0.242h-0.862v-0.242c0-0.238 0.193-0.433 0.43-0.433s0.432 0.194 0.432 0.433zM20.406 22.79h-7.116c-0.171 0-0.322-0.086-0.411-0.218-0.053-0.077-0.085-0.173-0.085-0.276 0-0 0-0.001 0-0.001v0-1.163h8.105v1.164c0 0.27-0.225 0.494-0.494 0.494zM20.9 20.788h-8.105v-1.847c0.927-0.010 3.767-0.215 3.767-1.142-0.001-1.392 0.002-1.957-0.004-2.005l1.546-0.926c0.050-0.031 0.083-0.085 0.083-0.148 0-0.071-0.043-0.132-0.104-0.158l-0.001-0-5.286-2.219v-1.438h8.105v9.883zM12.622 16.656c-0.955 0-2.794 0.123-3.592 0.645 0.005-1.595-0.055-1.491 0.141-1.627 0.496-0.365 1.916-0.62 3.451-0.62 0.67 0 3.595 0.184 3.595 0.803v1.444c-0.806-0.526-2.636-0.645-3.595-0.645zM12.794 9.398c0-0.273 0.222-0.495 0.495-0.495 0 0 0 0 0 0h7.116c0.273 0 0.494 0.225 0.494 0.495v1.163h-8.105v-1.163zM12.622 12.644l5.012 2.104-1.242 0.743c-0.66-0.655-2.844-0.782-3.77-0.782-0.927 0-3.111 0.127-3.77 0.782l-1.242-0.743 5.012-2.104zM9.030 17.799c0-0.279 1.234-0.799 3.592-0.799 2.36 0 3.595 0.52 3.595 0.799s-1.235 0.799-3.595 0.799c-2.358 0-3.592-0.52-3.592-0.799z"></path>
<path fill="#ff6b09" style="fill: var(--color1, #ff6b09)" d="M16.848 21.392c-0.314 0-0.569 0.255-0.569 0.569s0.255 0.57 0.569 0.57 0.569-0.255 0.569-0.57c0-0.314-0.255-0.569-0.569-0.569zM16.848 22.186c-0.118-0.008-0.211-0.106-0.211-0.225s0.093-0.217 0.21-0.225l0.001-0c0.121 0.005 0.217 0.104 0.217 0.225s-0.096 0.22-0.216 0.225h-0zM17.505 9.56h-1.314v0.344h1.314v-0.344z"></path>
<path fill="none" stroke="#ff6b09" style="stroke: var(--color1, #ff6b09)" stroke-linejoin="miter" stroke-linecap="butt" stroke-miterlimit="4" stroke-width="0.6154" d="M31.077 4.615v-4.308h-30.769v31.385h30.769v-4.308"></path>
</symbol>
<symbol id="icon-advantages-result" viewBox="0 0 31 32">
<path fill="#ff6b09" style="fill: var(--color1, #ff6b09)" d="M7.942 14.958c0 0.165-0.25 0.165-0.25 0 0-3.502 2.84-6.342 6.342-6.342 3.504 0 6.342 2.84 6.342 6.342 0 0.165-0.249 0.165-0.249 0 0-2.367-3.89-2.369-3.89 0 0 0.165-0.256 0.165-0.256 0 0-2.361-3.896-2.361-3.896 0 0 0.165-0.256 0.165-0.256 0 0-2.357-3.888-2.373-3.888 0zM11.853 14.038c0.068-1.362 0.282-2.584 0.593-3.517 0.249-0.742 0.563-1.304 0.919-1.62-2.674 0.292-4.839 2.319-5.323 4.949 0.921-1.328 3.047-1.222 3.811 0.189zM15.963 13.977c-0.069-1.31-0.277-2.482-0.577-3.376-0.772-2.314-1.931-2.314-2.704 0-0.299 0.894-0.506 2.066-0.576 3.376 0.831-1.412 3.026-1.412 3.857 0zM20.027 13.85c-0.482-2.629-2.647-4.657-5.323-4.949 0.358 0.316 0.671 0.879 0.919 1.62 0.311 0.933 0.526 2.154 0.593 3.517 0.768-1.418 2.9-1.502 3.811-0.189zM13.202 17.86v-1.288c-0.232 0.154-0.414 0.392-0.414 0.683 0 0.283 0.186 0.47 0.414 0.605zM13.452 18.26c-0.445-0.204-0.913-0.442-0.913-1.005 0-0.581 0.442-0.872 0.913-1.089v2.094zM14.867 19.803v1.303c0.235-0.156 0.419-0.395 0.419-0.686 0-0.286-0.189-0.479-0.419-0.617zM14.619 19.402c0.446 0.206 0.918 0.452 0.918 1.018 0 0.582-0.445 0.873-0.918 1.089v-2.107z"></path>
<path fill="#ff6b09" style="fill: var(--color1, #ff6b09)" d="M14.867 15.106c1.024 0.237 2.077 1.003 2.077 2.149 0 0.981-1.658 0.945-1.658 0 0-0.292-0.184-0.532-0.419-0.686v1.833c0.948 0.31 2.080 0.865 2.080 2.018 0 1.147-1.053 1.912-2.080 2.147-0.004 1.091-1.662 1.090-1.665-0.002-0.584-0.135-1.092-0.407-1.458-0.768-0.385-0.38-0.612-0.858-0.612-1.378 0-0.966 1.656-0.966 1.656 0 0 0.289 0.182 0.527 0.415 0.682v-1.831c-0.94-0.304-2.078-0.876-2.078-2.018 0-1.147 1.053-1.912 2.078-2.147 0.004-1.092 1.662-1.090 1.665 0.002zM13.452 15.109v0.199c-0.975 0.193-2.080 0.818-2.080 1.943 0 1.083 1.213 1.568 2.080 1.836v2.42c-0.469-0.214-0.914-0.503-0.914-1.087 0-0.638-1.159-0.638-1.159 0 0 0.451 0.201 0.867 0.539 1.199 0.43 0.425 0.951 0.628 1.533 0.743v0.201c0 0.768 1.166 0.768 1.166 0v-0.199c0.978-0.195 2.078-0.819 2.078-1.944 0-1.093-1.21-1.563-2.078-1.837v-2.418c0.47 0.214 0.918 0.503 0.918 1.090 0 0.622 1.157 0.647 1.157 0 0-1.125-1.099-1.75-2.075-1.945v-0.201c0-0.768-1.166-0.768-1.166 0z"></path>
<path fill="none" stroke="#ff6b09" style="stroke: var(--color1, #ff6b09)" stroke-linejoin="miter" stroke-linecap="butt" stroke-miterlimit="4" stroke-width="0.6154" d="M31.077 4.615v-4.308h-30.769v31.385h30.769v-4.308"></path>
</symbol>
<symbol id="icon-advantages-program" viewBox="0 0 31 32">
<path fill="#ff6b09" style="fill: var(--color1, #ff6b09)" d="M7.953 23.273h12.362c0.062-1.41-0.040-3.749-0.906-4.862l-0.031-0.040-1.894-0.951c0.041-0.139 0.062-0.266 0.070-0.359 0.002-0.019 0.003-0.041 0.003-0.063 0-0.090-0.018-0.176-0.051-0.254l0.002 0.004c-0.312-0.748-0.974-1.141-1.337-1.309 0.111-0.223 0.182-0.463 0.217-0.708 0.21-0.060 0.372-0.226 0.425-0.435l0.001-0.004 0.221-0.898c0.012-0.044 0.018-0.095 0.018-0.147 0-0.116-0.033-0.225-0.090-0.318l0.002 0.003c-0.037-0.060-0.082-0.111-0.134-0.153l-0.001-0.001c0.623-1.416-0.421-2.751-0.478-2.822-1.13-1.222-2.559-0.994-2.634-0.98-2.061 0.432-2.857 2.011-2.408 3.864-0.097 0.107-0.157 0.251-0.157 0.408 0 0.052 0.006 0.102 0.019 0.15l-0.001-0.004 0.222 0.899c0.054 0.216 0.218 0.378 0.422 0.437 0.066 0.456 0.256 0.86 0.535 1.185l-0.003-0.003v0.712c-2.958 1.515-1.084 0.548-3.454 1.748-0.005 0.022-1.112 1.199-0.948 4.688l0.010 0.213zM19.885 22.826h-2.034v-0.855l1.346-3.081c0.674 1.119 0.699 3.255 0.689 3.935zM17.109 17.023c-0.079 0.902-0.573 0.63-0.878 1.324-0.24-0.264-0.313-0.581-0.248-0.92 0.117-0.622-0.263-0.807-0.169-1.461l0.014-0.015v-0.002c0.008-0.009 0.083-0.098 0.105-0.126 0.805 0.351 1.193 1.003 1.177 1.2zM12.79 16.314c0.366 0.258 0.821 0.413 1.312 0.413 0.47 0 0.906-0.141 1.269-0.383l-0.008 0.005c0.052 0.514 0.252 0.617 0.182 0.995-0.012 0.059-0.021 0.13-0.025 0.203l-0 0.005-1.386 1.562-1.771-1.997 0.428-0.223v-0.579zM12.233 14.403v-2.387c0.215-0.399 0.51-0.688 0.875-0.862 0.978 0.554 2.105 1.38 2.86 2.212-0.001 1.059 0.003 1.062-0.004 1.149l-0 0.006c-0.059 0.962-0.85 1.759-1.864 1.759-0.986 0-1.804-0.774-1.863-1.768-0.002-0.028-0.003-0.061-0.003-0.093 0-0.005 0-0.010 0-0.015v0.001zM11.957 17.332l2.177 2.454 1.462-1.647c0.033 0.096 0.080 0.187 0.134 0.275l-1.595 1.995-2.378-2.975 0.202-0.102zM16.414 14.043v-0.691l0.166-0.191c0.009 0.35 0.047-0.063-0.166 0.882zM13.798 9.415c0.089 0.006 1.276-0.181 2.215 0.833 0.037 0.046 0.801 1.031 0.494 2.108-0.105-0.479-0.288-1.094-0.578-1.386l-0.316 0.315c0.286 0.289 0.474 1.171 0.545 1.628-1.311-1.372-3.002-2.24-3.026-2.254-0.085 0.053-0.8 0.189-1.32 1.199l-0.025 0.048v0.742l-0.066 0.001c-0.33-1.594 0.302-2.861 2.076-3.233zM11.675 13.108l0.112 0.456v0.479l-0.187-0.757c-0.028-0.113 0.056-0.155 0.074-0.178zM11.347 17.638l2.786 3.485 1.885-2.358c0.205 0.184 0.304 0.21 0.738 0.433l-0.146-0.498c-0.037-0.126 0.11-0.329 0.199-0.422 0.2-0.11 0.364-0.262 0.485-0.446l0.003-0.005 1.538 0.772-1.432 3.277v0.949h-6.542v-0.949l-1.432-3.277 1.917-0.962zM9.071 18.891l1.346 3.080v0.854h-2.035c-0.010-0.68 0.015-2.815 0.689-3.934z"></path>
<path fill="none" stroke="#ff6b09" style="stroke: var(--color1, #ff6b09)" stroke-linejoin="miter" stroke-linecap="butt" stroke-miterlimit="4" stroke-width="0.6154" d="M31.077 4.615v-4.308h-30.769v31.385h30.769v-4.308"></path>
</symbol>
<symbol id="close" viewBox="0 0 32 32">
<path d="M26.667 7.303l-1.97-1.97-7.808 7.808-7.808-7.808-1.97 1.97 7.808 7.808-7.808 7.808 1.97 1.97 7.808-7.808 7.808 7.808 1.97-1.97-7.808-7.808 7.808-7.808z"></path>
</symbol>
<symbol id="icon-instagram" viewBox="0 0 32 32">
<path fill="#000" style="fill: var(--color3, #000)" d="M28.877 4.77c-0.25-2.275-2.039-4.064-4.292-4.311l-0.022-0.002c-2.569-0.291-5.547-0.457-8.563-0.457s-5.994 0.166-8.925 0.489l0.361-0.032c-2.275 0.25-4.064 2.039-4.311 4.292l-0.002 0.022c-0.291 2.569-0.457 5.547-0.457 8.563s0.166 5.994 0.489 8.925l-0.032-0.362c0.25 2.275 2.039 4.064 4.292 4.311l0.022 0.002c5.703 0.609 11.423 0.609 17.127 0 2.275-0.25 4.064-2.039 4.311-4.292l0.002-0.022c0.609-5.703 0.609-11.423 0-17.127z"></path>
<path fill="#000" style="fill: var(--color3, #000)" d="M27.427 5.734c-0.222-2.018-1.809-3.606-3.808-3.826l-0.019-0.002c-2.28-0.258-4.922-0.405-7.599-0.405s-5.319 0.147-7.92 0.434l0.321-0.029c-2.018 0.222-3.605 1.809-3.825 3.807l-0.002 0.019c-0.54 5.061-0.54 10.137 0 15.198 0.221 2.018 1.809 3.605 3.807 3.826l0.019 0.002c5.061 0.54 10.137 0.54 15.198 0 2.018-0.221 3.606-1.808 3.826-3.807l0.002-0.019c0.54-5.061 0.54-10.137 0-15.199z"></path>
<path fill="#000" style="fill: var(--color3, #000)" d="M3.067 21.344c0.018 0.185 0.037 0.369 0.057 0.553 0.25 2.275 2.039 4.064 4.292 4.311l0.022 0.002c5.703 0.608 11.424 0.608 17.127 0 2.275-0.25 4.064-2.039 4.311-4.292l0.002-0.022c0.020-0.185 0.039-0.369 0.057-0.553h-25.868z"></path>
<path fill="#000" style="fill: var(--color3, #000)" d="M28.877 21.897c0.327-3.065 0.478-6.133 0.453-9.203l-6.095-6.095c-0.762-0.869-1.874-1.412-3.182-1.459-1.203-0.045-2.617-0.071-4.036-0.071s-2.833 0.026-4.239 0.077l0.203-0.006c-2.233 0.077-3.793 1.578-4.194 3.783-0.071 0.39-0.113 0.784-0.169 1.177v6.466c0.031 0.209 0.076 0.418 0.090 0.629 0.089 1.341 0.641 2.491 1.523 3.268l6.203 6.203c3.045 0.021 6.089-0.13 9.129-0.455 2.275-0.25 4.064-2.039 4.311-4.292l0.002-0.022z"></path>
<path fill="#000" style="fill: var(--color3, #000)" d="M28.877 21.897c-0.25 2.275-2.039 4.064-4.292 4.311l-0.022 0.002c-3.039 0.324-6.084 0.475-9.127 0.454l-6.193-6.193c0.718 0.629 1.653 1.011 2.74 1.052 2.687 0.101 5.384 0.099 8.071 0.001 2.431-0.088 4.19-1.887 4.267-4.317 0.039-1.155 0.061-2.512 0.061-3.875s-0.022-2.72-0.066-4.072l0.005 0.197c-0.035-1.121-0.429-2.108-1.081-2.855l6.091 6.091c0.024 3.069-0.127 6.139-0.453 9.203z"></path>
<path fill="#000" style="fill: var(--color3, #000)" d="M19.147 10.446c-0.784-0.859-1.908-1.395-3.158-1.395-2.359 0-4.271 1.912-4.271 4.271 0 1.25 0.537 2.374 1.392 3.155l0.003 0.003 9.882 9.882c0.523-0.045 1.047-0.096 1.569-0.152 2.275-0.25 4.064-2.039 4.311-4.292l0.002-0.022c0.056-0.523 0.107-1.045 0.152-1.569l-9.882-9.881z"></path>
<path fill="#000" style="fill: var(--color3, #000)" d="M29.281 16.206l-7.953-7.953c-0.187-0.249-0.482-0.408-0.814-0.408-0.561 0-1.016 0.455-1.016 1.016 0 0.332 0.159 0.627 0.405 0.812l0.003 0.002 9.233 9.234c0.063-0.9 0.11-1.802 0.142-2.703z"></path>
<path fill="#000" style="fill: var(--color3, #000)" d="M7.619 10.099c0.055-0.393 0.098-0.787 0.169-1.176 0.4-2.206 1.961-3.707 4.194-3.783 1.203-0.045 2.617-0.071 4.036-0.071s2.833 0.026 4.239 0.077l-0.203-0.006c2.431 0.087 4.19 1.887 4.267 4.317 0.039 1.155 0.061 2.512 0.061 3.875s-0.022 2.72-0.066 4.072l0.005-0.197c-0.077 2.431-1.836 4.23-4.267 4.318-2.687 0.097-5.384 0.099-8.072-0.001-2.43-0.091-4.11-1.895-4.273-4.329-0.013-0.211-0.059-0.42-0.089-0.629v-6.465zM16.002 20.084c1.23 0 2.461 0.037 3.69-0.009 1.927-0.071 3.111-1.221 3.156-3.145 0.055-2.397 0.055-4.798 0-7.196-0.045-1.924-1.231-3.1-3.156-3.141-1.091-0.025-2.377-0.039-3.667-0.039s-2.575 0.014-3.858 0.042l0.191-0.003c-1.911 0.040-3.099 1.193-3.151 3.095-0.067 2.428-0.067 4.86 0 7.288 0.052 1.903 1.24 3.029 3.151 3.099 1.213 0.045 2.429 0.009 3.643 0.009z"></path>
<path fill="#fff" style="fill: var(--color2, #fff)" d="M7.619 10.099c0.055-0.393 0.098-0.787 0.169-1.176 0.4-2.206 1.961-3.707 4.194-3.783 1.203-0.045 2.617-0.071 4.036-0.071s2.833 0.026 4.239 0.077l-0.203-0.006c2.431 0.087 4.19 1.887 4.267 4.317 0.039 1.155 0.061 2.512 0.061 3.875s-0.022 2.72-0.066 4.072l0.005-0.197c-0.077 2.431-1.836 4.23-4.267 4.318-2.687 0.097-5.384 0.099-8.072-0.001-2.43-0.091-4.11-1.895-4.273-4.329-0.013-0.211-0.059-0.42-0.089-0.629v-6.465zM16.002 20.084c1.23 0 2.461 0.037 3.69-0.009 1.927-0.071 3.111-1.221 3.156-3.145 0.055-2.397 0.055-4.798 0-7.196-0.045-1.924-1.231-3.1-3.156-3.141-1.091-0.025-2.377-0.039-3.667-0.039s-2.575 0.014-3.858 0.042l0.191-0.003c-1.911 0.040-3.099 1.193-3.151 3.095-0.067 2.428-0.067 4.86 0 7.288 0.052 1.903 1.24 3.029 3.151 3.099 1.213 0.045 2.429 0.009 3.643 0.009z"></path>
<path fill="#fff" style="fill: var(--color2, #fff)" d="M16 9.062c-2.359 0-4.271 1.912-4.271 4.271s1.912 4.271 4.271 4.271v0c2.359 0 4.271-1.912 4.271-4.271s-1.912-4.271-4.271-4.271v0zM16 16.134c-1.547 0-2.801-1.254-2.801-2.801s1.254-2.801 2.801-2.801v0c1.547 0 2.801 1.254 2.801 2.801s-1.254 2.801-2.801 2.801v0zM21.537 8.867c0 0.561-0.455 1.016-1.016 1.016s-1.016-0.455-1.016-1.016v0c0-0.561 0.455-1.016 1.016-1.016s1.016 0.455 1.016 1.016v0z"></path>
</symbol>
<symbol id="icon-logo" viewBox="0 0 91 32">
<path d="M13.608 4.836v12.942h-3.661v-5.047h-4.992v5.047h-3.661v-12.942h3.661v4.863h4.992v-4.863h3.661zM27.006 12.786c0 0.025-0.018 0.314-0.055 0.869h-7.285c0.148 0.518 0.432 0.918 0.851 1.202 0.432 0.271 0.967 0.407 1.609 0.407 0.481 0 0.894-0.068 1.239-0.203 0.358-0.135 0.715-0.358 1.072-0.666l1.849 1.923c-0.974 1.084-2.397 1.627-4.271 1.627-1.171 0-2.2-0.222-3.088-0.666s-1.577-1.060-2.071-1.849c-0.481-0.789-0.721-1.683-0.721-2.681 0-0.986 0.235-1.867 0.703-2.644 0.483-0.786 1.154-1.415 1.951-1.836l0.027-0.013c0.838-0.444 1.781-0.666 2.829-0.666 0.998 0 1.904 0.21 2.718 0.629 0.811 0.406 1.466 1.020 1.911 1.772l0.012 0.021c0.481 0.777 0.721 1.701 0.721 2.773zM21.663 10.086c-0.542 0-0.998 0.154-1.368 0.462-0.357 0.308-0.585 0.727-0.684 1.257h4.105c-0.098-0.53-0.333-0.949-0.703-1.257-0.357-0.308-0.807-0.462-1.35-0.462zM29.365 4.059h3.513v13.719h-3.513v-13.719zM35.9 4.059h3.513v13.719h-3.513v-13.719z"></path>
<path fill="#ff6b09" style="fill: var(--color1, #ff6b09)" d="M5.547 26.596v3.982h-0.922v-1.633h-1.809v1.633h-0.922v-3.982h0.922v1.57h1.809v-1.57h0.922zM10.596 29.838v0.74h-3.083v-3.982h3.009v0.74h-2.094v0.865h1.849v0.717h-1.849v0.922h2.167zM12.353 26.596h0.922v3.231h1.997v0.751h-2.918v-3.982zM16.811 26.596h0.922v3.231h1.997v0.751h-2.918v-3.982zM21.268 26.596h0.922v3.982h-0.922v-3.982zM25.467 30.646c-0.314 0-0.62-0.042-0.916-0.125-0.292-0.087-0.527-0.199-0.705-0.336l0.313-0.694c0.171 0.125 0.374 0.225 0.609 0.302s0.471 0.114 0.705 0.114c0.262 0 0.455-0.038 0.58-0.114 0.125-0.080 0.188-0.184 0.188-0.313 0-0.001 0-0.003 0-0.005 0-0.093-0.044-0.176-0.113-0.228l-0.001-0c-0.080-0.068-0.175-0.121-0.279-0.152l-0.006-0.001c-0.115-0.039-0.272-0.082-0.431-0.118l-0.036-0.007c-0.299-0.068-0.548-0.142-0.79-0.231l0.045 0.014c-0.199-0.076-0.368-0.194-0.499-0.346l-0.001-0.001c-0.137-0.159-0.205-0.372-0.205-0.637 0-0.231 0.063-0.44 0.188-0.626 0.125-0.19 0.313-0.339 0.563-0.449 0.255-0.11 0.563-0.165 0.927-0.165 0.255 0 0.503 0.031 0.745 0.091s0.455 0.148 0.637 0.262l-0.284 0.7c-0.368-0.208-0.735-0.313-1.104-0.313-0.257 0-0.449 0.042-0.575 0.125-0.11 0.069-0.182 0.189-0.182 0.326 0 0.001 0 0.003 0 0.004v-0c0 0.137 0.070 0.239 0.21 0.307 0.144 0.064 0.363 0.129 0.654 0.193 0.304 0.072 0.552 0.144 0.745 0.216s0.358 0.186 0.495 0.341c0.141 0.156 0.21 0.366 0.21 0.631 0 0.228-0.064 0.436-0.193 0.626-0.125 0.186-0.314 0.334-0.569 0.444s-0.563 0.165-0.927 0.165zM32.463 26.596v3.982h-0.922v-1.633h-1.81v1.633h-0.922v-3.982h0.922v1.57h1.809v-1.57h0.922z"></path>
<path  d="M40.148 29.838v0.74h-3.085v-3.982h3.009v0.74h-2.092v0.865h1.849v0.717h-1.849v0.922h2.168zM45.557 26.596v3.982h-0.757l-1.985-2.418v2.418h-0.91v-3.982h0.762l1.98 2.418v-2.418h0.91zM50.214 28.524h0.842v1.616c-0.216 0.164-0.467 0.288-0.751 0.375s-0.571 0.131-0.859 0.131c-0.011 0-0.024 0-0.037 0-0.394 0-0.765-0.097-1.091-0.268l0.013 0.006c-0.324-0.174-0.588-0.423-0.774-0.725l-0.005-0.009c-0.175-0.296-0.279-0.653-0.279-1.033 0-0.011 0-0.021 0-0.032l-0 0.002c0-0.395 0.092-0.747 0.279-1.058 0.19-0.313 0.457-0.563 0.774-0.729l0.011-0.005c0.334-0.178 0.709-0.267 1.126-0.267 0.348 0 0.666 0.059 0.95 0.176s0.523 0.288 0.717 0.512l-0.592 0.546c-0.251-0.277-0.612-0.45-1.014-0.45-0.006 0-0.011 0-0.017 0h0.001c-0.255 0-0.48 0.053-0.677 0.159s-0.351 0.256-0.461 0.449c-0.104 0.185-0.165 0.405-0.165 0.64 0 0.009 0 0.018 0 0.027l-0-0.001c0 0.247 0.055 0.466 0.165 0.66s0.262 0.345 0.455 0.455c0.197 0.107 0.421 0.159 0.671 0.159 0.007 0 0.015 0 0.023 0 0.254 0 0.492-0.063 0.702-0.175l-0.008 0.004v-1.166zM52.937 26.596h0.922v3.231h1.997v0.751h-2.92v-3.982zM57.394 26.596h0.922v3.982h-0.922v-3.982zM61.593 30.646c-0.315 0-0.62-0.042-0.916-0.125-0.292-0.087-0.528-0.199-0.705-0.336l0.313-0.694c0.171 0.125 0.373 0.225 0.609 0.302s0.47 0.114 0.705 0.114c0.262 0 0.455-0.038 0.58-0.114 0.125-0.080 0.188-0.184 0.188-0.313 0-0.001 0-0.003 0-0.005 0-0.093-0.044-0.176-0.113-0.228l-0.001-0c-0.080-0.068-0.175-0.121-0.279-0.152l-0.005-0.001c-0.115-0.039-0.272-0.082-0.431-0.118l-0.036-0.007c-0.299-0.068-0.548-0.142-0.79-0.231l0.045 0.014c-0.199-0.076-0.368-0.194-0.499-0.346l-0.001-0.001c-0.137-0.159-0.205-0.372-0.205-0.637 0-0.231 0.063-0.44 0.188-0.626 0.125-0.19 0.313-0.339 0.563-0.449 0.254-0.11 0.563-0.165 0.927-0.165 0.254 0 0.502 0.031 0.745 0.091s0.455 0.148 0.637 0.262l-0.284 0.7c-0.368-0.208-0.736-0.313-1.104-0.313-0.258 0-0.449 0.042-0.575 0.125-0.11 0.069-0.182 0.189-0.182 0.327 0 0.001 0 0.002 0 0.004v-0c0 0.137 0.070 0.239 0.211 0.307 0.144 0.064 0.362 0.129 0.654 0.193 0.303 0.072 0.552 0.144 0.745 0.216s0.358 0.186 0.495 0.341c0.14 0.156 0.211 0.366 0.211 0.631 0 0.228-0.065 0.436-0.193 0.626-0.125 0.186-0.315 0.334-0.569 0.444s-0.563 0.165-0.927 0.165zM68.588 26.596v3.982h-0.922v-1.633h-1.809v1.633h-0.922v-3.982h0.922v1.57h1.809v-1.57h0.922zM74.263 14.949v2.829h-10.391v-12.942h10.15v2.829h-6.527v2.182h5.75v2.736h-5.75v2.367h6.767zM89.348 4.836v12.942h-3.014l-5.713-6.896v6.896h-3.587v-12.942h3.014l5.713 6.896v-6.896h3.587z"></path>
<path fill="#ff6b09" style="fill: var(--color1, #ff6b09)" d="M58.695 11.062c-0.19-0.424-0.45-0.841-0.832-1.323-0.961-1.209-1.254-3.904-1.258-3.93-0.015-0.13-0.103-0.235-0.222-0.274l-0.002-0.001c-0.030-0.010-0.064-0.015-0.1-0.015-0.097 0-0.185 0.042-0.245 0.109l-0 0c-1.147 1.283-0.665 3.264-0.404 4.056 0.071 0.217 0.149 0.472 0.206 0.731 0.423 2.091-0.395 3.038-0.587 3.228-0.186 0.052-0.313 0.026-0.43-0.1-0.405-0.443-0.538-1.894-0.348-3.785 0.015-0.129 0.024-0.279 0.024-0.431 0-0.22-0.018-0.435-0.054-0.645l0.003 0.023c-0.399-2.324-1.861-3.815-2.233-4.338-1.024-1.513-1.128-4.031-1.131-4.053-0.007-0.174-0.15-0.312-0.325-0.312-0.068 0-0.132 0.021-0.184 0.057l0.001-0.001c-1.708 1.161-1.562 3.957-1.323 5.518 0.055 0.363 0.163 0.73 0.348 1.196 0.661 1.664-0.13 3.814-0.137 3.833-0.007 0.020-0.014 0.036-0.016 0.055-0.101 0.53-0.27 0.847-0.46 0.847-0.022-0-0.043-0.004-0.063-0.010l0.002 0c-0.231-0.048-0.352-0.294-0.356-0.507-0.013-2.757-2.78-3.685-2.809-3.695s-0.064-0.016-0.1-0.016c-0.098 0-0.186 0.044-0.246 0.113l-0 0c-0.050 0.056-0.080 0.13-0.080 0.211 0 0.053 0.013 0.102 0.036 0.146l-0.001-0.002c0.033 0.068 0.137 0.365 0.065 1.415-0.068 1.014-0.25 1.959-0.535 2.859l0.023-0.085c-0.658 2.147-0.555 4.18-0.548 4.277 0.506 5.505 8.423 6.47 13.122 3.369 0.515-0.34 0.935-0.727 1.244-1.154 1.734-2.392 0.714-5.641-0.045-7.367zM46.651 16.32c0 0.005 0 0.011 0 0.017 0 0.173-0.136 0.314-0.306 0.322l-0.001 0h-0.020c-0.001 0-0.001 0-0.002 0-0.172 0-0.312-0.134-0.324-0.303l-0-0.001c-0.029-0.471-0.023-0.966 0.014-1.503 0.015-0.169 0.156-0.301 0.328-0.301 0.007 0 0.014 0 0.021 0.001l-0.001-0c0.17 0.012 0.304 0.153 0.304 0.325 0 0.007-0 0.014-0.001 0.022l0-0.001c-0.036 0.511-0.043 0.976-0.013 1.422zM46.81 13.456c-0.020 0.161-0.156 0.284-0.321 0.284-0 0-0.001 0-0.001 0h0c-0.014 0-0.026 0-0.043-0.004-0.162-0.021-0.286-0.158-0.286-0.324 0-0.012 0.001-0.024 0.002-0.036l-0 0.001 0.156-1.248c0.023-0.161 0.16-0.283 0.325-0.283 0.014 0 0.028 0.001 0.042 0.003l-0.002-0c0.179 0.023 0.306 0.184 0.283 0.362l-0.156 1.244zM56.489 4.422c-0.157-0.024-0.276-0.158-0.276-0.32 0-0.017 0.001-0.034 0.004-0.050l-0 0.002c0.021-0.132 0.139-0.804 0.458-1.142 0.060-0.063 0.144-0.102 0.238-0.102 0.086 0 0.165 0.034 0.223 0.088l-0-0c0.132 0.122 0.138 0.326 0.014 0.457-0.135 0.143-0.25 0.553-0.289 0.798-0.026 0.156-0.16 0.274-0.322 0.274-0.018 0-0.035-0.001-0.052-0.004l0.002 0zM44.608 6.032c-0.063-0.24-0.218-0.637-0.366-0.767-0.068-0.059-0.111-0.146-0.111-0.243 0-0.082 0.031-0.156 0.081-0.213l-0 0c0.060-0.068 0.148-0.11 0.245-0.11 0.083 0 0.158 0.031 0.215 0.081l-0-0c0.351 0.305 0.535 0.963 0.567 1.092 0.006 0.024 0.010 0.052 0.010 0.080 0 0.151-0.103 0.277-0.242 0.313l-0.002 0c-0.024 0.006-0.052 0.010-0.081 0.010-0.151 0-0.277-0.102-0.316-0.24l-0.001-0.002z"></path>
</symbol>
<symbol id="menu" viewBox="0 0 48 32">
<path d="M0 5.333v-5.333h48v5.333h-48zM0 18.667h48v-5.333h-48v5.333zM0 32h48v-5.333h-48v5.333z"></path>
</symbol>
<symbol id="icon-how-we-do-audio-book" viewBox="0 0 39 32">
<path fill="currentColor" style="fill: currentColor" d="M3.047 29.453h12.23c0.618 1.262 1.893 2.115 3.367 2.115 0.005 0 0.009 0 0.014-0h0.773c0.004 0 0.009 0 0.014 0 1.474 0 2.748-0.854 3.356-2.093l0.010-0.022h12.237c1.262-0.001 2.285-1.024 2.286-2.286v-21.905c-0.002-1.262-1.024-2.284-2.286-2.285h-1.234v-1.021c-0.001-0.841-0.683-1.523-1.524-1.523h-26.491c-0.841 0.001-1.523 0.682-1.524 1.523v1.021h-1.227c-1.262 0.001-2.285 1.023-2.287 2.285v21.905c0.001 1.262 1.024 2.285 2.287 2.286h0zM32.287 24.751h-12.477v-17.705c2.885 0.377 5.121 2.845 5.121 5.831v0.687l-0.181-0.040c-0.049-0.011-0.106-0.018-0.164-0.018-0.363 0-0.666 0.253-0.743 0.593l-0.001 0.005-1.213 5.52c-0.011 0.049-0.018 0.105-0.018 0.163 0 0.362 0.253 0.666 0.593 0.743l0.005 0.001 2.621 0.578c0.136 0.029 0.273 0.043 0.411 0.043 0.921 0 1.707-0.631 1.907-1.535l0.702-3.192c0.029-0.125 0.045-0.269 0.045-0.417 0-0.929-0.648-1.706-1.517-1.904l-0.013-0.003-0.912-0.201v-1.023c0-3.827-2.917-6.987-6.645-7.371v-3.551h12.48l-0.001 22.796zM25.167 15.177l1.871 0.412c0.233 0.052 0.377 0.275 0.325 0.508l-0.702 3.191c-0.051 0.231-0.306 0.374-0.507 0.331l-1.873-0.413 0.886-4.029zM5.799 1.955h12.487v3.55c-3.731 0.381-6.651 3.542-6.651 7.372v1.022l-0.913 0.202c-0.517 0.115-0.947 0.425-1.218 0.846l-0.005 0.008c-0.193 0.295-0.307 0.657-0.307 1.045 0 0.15 0.017 0.297 0.050 0.437l-0.003-0.013 0.7 3.189c0.199 0.887 0.98 1.539 1.913 1.539 0.146 0 0.288-0.016 0.425-0.046l-0.013 0.002 2.61-0.577c0.344-0.078 0.598-0.381 0.598-0.744 0-0.058-0.006-0.114-0.018-0.168l0.001 0.005-1.213-5.519c-0.077-0.345-0.381-0.598-0.743-0.598-0.058 0-0.115 0.007-0.17 0.019l0.005-0.001-0.174 0.038v-0.685c0-2.988 2.24-5.458 5.128-5.832v17.707h-12.488v-22.797zM12.916 15.177l0.887 4.029-1.863 0.411c-0.027 0.006-0.058 0.009-0.090 0.009-0.205 0-0.377-0.143-0.421-0.334l-0.001-0.003-0.702-3.196c-0.007-0.028-0.011-0.060-0.011-0.094 0-0.084 0.025-0.161 0.067-0.227l-0.001 0.002c0.061-0.094 0.155-0.161 0.265-0.186l0.003-0.001 1.867-0.412zM2.286 5.262c0-0.42 0.341-0.762 0.761-0.762h1.227v20.251c0.001 0.842 0.683 1.524 1.525 1.524h26.491c0.841-0.001 1.523-0.682 1.524-1.523v-20.252h1.234c0.421 0 0.762 0.342 0.762 0.762v21.905c0 0.42-0.341 0.762-0.762 0.762h-12.754c-0.335 0-0.631 0.219-0.729 0.539-0.285 0.92-1.129 1.577-2.126 1.577-0.003 0-0.006 0-0.009-0h-0.772c-0.001 0-0.002 0-0.004 0-1.002 0-1.849-0.661-2.13-1.571l-0.004-0.016c-0.101-0.31-0.388-0.529-0.725-0.529h-12.747c-0.421 0-0.762-0.342-0.762-0.762v-21.905z"></path>
</symbol>
<symbol id="icon-guarantee-campfire" viewBox="0 0 25 32">
<path fill="#ff6b09" style="fill: var(--color1, #ff6b09)" d="M22.895 16.371c-0.289-0.626-0.689-1.244-1.274-1.956-1.474-1.789-1.924-5.779-1.929-5.817-0.024-0.195-0.161-0.352-0.342-0.407l-0.003-0.001c-0.046-0.015-0.098-0.023-0.153-0.023-0.148 0-0.282 0.062-0.376 0.162l-0 0c-1.76 1.899-1.020 4.832-0.62 6.004 0.11 0.32 0.229 0.699 0.315 1.081 0.65 3.095-0.605 4.497-0.899 4.779-0.285 0.078-0.48 0.039-0.66-0.147-0.619-0.656-0.825-2.803-0.533-5.602 0.023-0.191 0.037-0.413 0.037-0.638 0-0.326-0.028-0.645-0.082-0.955l0.005 0.033c-0.611-3.44-2.852-5.646-3.424-6.42-1.568-2.239-1.728-5.965-1.733-5.999-0.006-0.182-0.115-0.337-0.271-0.409l-0.003-0.001c-0.065-0.032-0.142-0.051-0.223-0.051-0.105 0-0.202 0.031-0.283 0.085l0.002-0.001c-2.619 1.717-2.394 5.856-2.029 8.166 0.085 0.535 0.25 1.081 0.533 1.77 1.015 2.464-0.198 5.645-0.209 5.675-0.011 0.028-0.020 0.051-0.025 0.080-0.155 0.785-0.416 1.253-0.704 1.253-0.034-0-0.067-0.005-0.098-0.015l0.003 0.001c-0.354-0.071-0.54-0.435-0.544-0.751-0.021-4.081-4.262-5.454-4.307-5.468-0.046-0.015-0.099-0.024-0.154-0.024-0.149 0-0.283 0.064-0.376 0.166l-0 0c-0.076 0.082-0.123 0.192-0.123 0.313 0 0.078 0.020 0.152 0.054 0.216l-0.001-0.002c0.050 0.1 0.21 0.54 0.1 2.095-0.104 1.502-0.384 2.9-0.819 4.227l0.035-0.122c-1.011 3.177-0.851 6.186-0.841 6.329 0.775 8.147 12.913 9.575 20.117 4.986 0.789-0.502 1.434-1.077 1.908-1.709 2.658-3.539 1.094-8.348-0.070-10.901zM4.432 24.155c0 0.005 0 0.012 0 0.018 0 0.262-0.209 0.476-0.469 0.484l-0.001 0h-0.030c-0.003 0-0.007 0-0.011 0-0.256 0-0.467-0.197-0.489-0.447l-0-0.002c-0.045-0.699-0.034-1.43 0.020-2.225 0.028-0.252 0.239-0.446 0.496-0.446 0.013 0 0.027 0.001 0.040 0.002l-0.002-0c0.26 0.013 0.466 0.226 0.466 0.488 0 0.008-0 0.017-0.001 0.025l0-0.001c-0.031 0.358-0.048 0.775-0.048 1.195 0 0.32 0.010 0.637 0.030 0.952l-0.002-0.043zM4.677 19.917c-0.036 0.239-0.239 0.42-0.486 0.42-0.003 0-0.007-0-0.010-0h0c-0.020 0-0.041 0-0.065-0.004-0.247-0.026-0.438-0.233-0.438-0.484 0-0.017 0.001-0.033 0.002-0.049l-0 0.002 0.24-1.846c0.040-0.24 0.247-0.42 0.495-0.42 0.023 0 0.046 0.002 0.068 0.005l-0.003-0c0.275 0.033 0.469 0.272 0.435 0.535l-0.24 1.842zM19.515 6.545c-0.239-0.030-0.422-0.233-0.422-0.477 0-0.024 0.002-0.047 0.005-0.070l-0 0.003c0.031-0.195 0.211-1.19 0.702-1.691 0.093-0.093 0.222-0.151 0.364-0.151 0.131 0 0.251 0.049 0.342 0.13l-0.001-0c0.202 0.181 0.211 0.483 0.022 0.676-0.207 0.212-0.384 0.818-0.443 1.181-0.044 0.233-0.246 0.407-0.489 0.407-0.029 0-0.057-0.002-0.085-0.007l0.003 0zM1.298 8.928c-0.096-0.356-0.333-0.943-0.561-1.134-0.104-0.086-0.17-0.215-0.17-0.359 0-0.122 0.047-0.233 0.125-0.316l-0 0c0.094-0.101 0.228-0.163 0.376-0.163 0.125 0 0.24 0.045 0.329 0.119l-0.001-0.001c0.539 0.452 0.821 1.425 0.871 1.616 0.009 0.035 0.014 0.075 0.014 0.116 0 0.227-0.158 0.417-0.371 0.465l-0.003 0.001c-0.038 0.010-0.081 0.016-0.126 0.016-0.227 0-0.418-0.15-0.481-0.356l-0.001-0.004z"></path>
</symbol>
<symbol id="icon-how-we-do-female-student" viewBox="0 0 27 32">
<path fill="currentColor" style="fill: currentColor" d="M-0.103 31.759h26.785c0.133-3.055-0.087-8.123-1.964-10.535l-0.068-0.087-4.104-2.060c0.089-0.301 0.133-0.576 0.151-0.779 0.004-0.041 0.007-0.089 0.007-0.137 0-0.195-0.039-0.381-0.11-0.55l0.003 0.009c-0.677-1.62-2.109-2.472-2.897-2.835 0.24-0.484 0.395-1.003 0.469-1.534 0.456-0.131 0.805-0.489 0.921-0.942l0.002-0.009 0.479-1.947c0.025-0.096 0.039-0.206 0.039-0.319 0-0.252-0.071-0.488-0.194-0.688l0.003 0.006c-0.080-0.13-0.178-0.24-0.291-0.332l-0.002-0.002c1.35-3.068-0.912-5.96-1.035-6.113-2.449-2.648-5.544-2.153-5.708-2.123-4.466 0.935-6.189 4.358-5.216 8.372-0.211 0.233-0.34 0.543-0.34 0.884 0 0.112 0.014 0.221 0.040 0.325l-0.002-0.009 0.481 1.949c0.117 0.468 0.473 0.82 0.915 0.947 0.142 0.989 0.554 1.863 1.158 2.567l-0.006-0.007v1.543c-6.409 3.282-2.348 1.188-7.485 3.787-0.010 0.048-2.409 2.599-2.053 10.158l0.022 0.462zM25.751 30.789h-4.408v-1.852l2.915-6.675c1.461 2.425 1.515 7.053 1.493 8.527zM19.735 18.216c-0.17 1.955-1.241 1.364-1.903 2.869-0.52-0.572-0.677-1.258-0.537-1.993 0.253-1.349-0.571-1.749-0.367-3.166l0.031-0.032v-0.005c0.017-0.020 0.18-0.213 0.227-0.274 1.744 0.76 2.584 2.174 2.55 2.6zM10.379 16.681c0.793 0.559 1.778 0.894 2.842 0.894 1.017 0 1.963-0.306 2.75-0.831l-0.018 0.011c0.112 1.113 0.547 1.337 0.393 2.157-0.025 0.128-0.045 0.282-0.054 0.439l-0 0.010-3.002 3.383-3.838-4.327 0.927-0.483v-1.254zM9.172 12.539v-5.172c0.467-0.864 1.104-1.491 1.895-1.867 2.12 1.2 4.56 2.99 6.197 4.792-0.002 2.294 0.007 2.3-0.009 2.489l-0.001 0.012c-0.128 2.084-1.841 3.811-4.038 3.811-2.135 0-3.909-1.677-4.037-3.831-0.005-0.063-0.008-0.136-0.008-0.21 0-0.008 0-0.016 0-0.024v0.001zM8.574 18.886l4.716 5.317 3.167-3.569c0.072 0.209 0.173 0.405 0.289 0.596l-3.456 4.322-5.153-6.446 0.437-0.22zM18.23 11.759v-1.498l0.36-0.413c0.020 0.759 0.102-0.136-0.36 1.911zM12.561 1.733c0.192 0.012 2.765-0.391 4.799 1.805 0.080 0.1 1.736 2.233 1.071 4.567-0.228-1.039-0.625-2.369-1.252-3.004l-0.685 0.683c0.619 0.627 1.027 2.537 1.181 3.527-2.84-2.972-6.504-4.853-6.555-4.885-0.183 0.114-1.734 0.409-2.86 2.598l-0.053 0.104v1.608l-0.143 0.001c-0.715-3.455 0.655-6.199 4.497-7.004zM7.963 9.735l0.243 0.987v1.038l-0.405-1.64c-0.060-0.244 0.121-0.337 0.161-0.385zM7.253 19.549l6.037 7.551 4.085-5.109c0.445 0.398 0.658 0.454 1.6 0.939l-0.317-1.078c-0.081-0.273 0.239-0.713 0.431-0.914 0.433-0.238 0.789-0.568 1.050-0.966l0.007-0.011 3.333 1.673-3.102 7.1v2.055h-14.175v-2.055l-3.103-7.099 4.153-2.085zM2.32 22.265l2.916 6.673v1.851h-4.408c-0.022-1.473 0.033-6.1 1.492-8.525z"></path>
</symbol>
<symbol id="icon-how-we-do-mobile-learning" viewBox="0 0 33 32">
<path fill="currentColor" style="fill: currentColor" d="M30.175-0.128h-15.746c-1.026 0.001-1.858 0.833-1.859 1.859v6.519l-11.699 4.909c-0.139 0.059-0.235 0.194-0.235 0.352 0 0.139 0.074 0.26 0.185 0.326l0.002 0.001 1.492 0.893v9.516c-0.77 0.181-1.334 0.861-1.335 1.673v0.917c0 0.211 0.17 0.381 0.381 0.381h2.671c0.211 0 0.381-0.171 0.381-0.381v0-0.917c0-0.816-0.573-1.498-1.337-1.673v-9.060l1.18 0.706c-0.037 0.272-0.005-0.474-0.017 4.43 0 1.612 4.129 2.476 8.33 2.525v7.425c0 1.025 0.832 1.856 1.857 1.856 0 0 0.001 0 0.001 0h15.745c1.025-0.001 1.857-0.832 1.857-1.857v-0c0 0.051-0.002-1.573 0-28.539 0-1.012-0.836-1.859-1.856-1.859zM3.651 25.918v0.537h-1.908v-0.537c0-0.528 0.427-0.957 0.952-0.957 0.528 0 0.957 0.43 0.957 0.957zM30.175 31.364h-15.746c-0.378 0-0.711-0.191-0.909-0.481-0.117-0.171-0.187-0.383-0.187-0.61 0-0.001 0-0.001 0-0.002v0-2.574h17.934v2.575c0 0.596-0.497 1.092-1.092 1.092zM31.267 26.935h-17.935v-4.086c2.051-0.023 8.335-0.475 8.335-2.527-0.003-3.080 0.005-4.33-0.010-4.436l3.421-2.049c0.111-0.068 0.184-0.189 0.184-0.326 0-0.157-0.095-0.292-0.23-0.35l-0.002-0.001-11.698-4.91v-3.182h17.935v21.868zM12.951 17.792c-2.113 0-6.182 0.273-7.949 1.427 0.011-3.53-0.123-3.3 0.312-3.6 1.098-0.808 4.239-1.373 7.637-1.373 1.482 0 7.954 0.407 7.954 1.777v3.196c-1.784-1.165-5.832-1.428-7.954-1.428zM13.332 1.731c0.001-0.605 0.491-1.095 1.096-1.095 0 0 0 0 0 0h15.745c0.605 0 1.093 0.498 1.093 1.095v2.574h-17.934v-2.574zM12.951 8.915l11.090 4.655-2.748 1.644c-1.461-1.449-6.294-1.729-8.342-1.729-2.051 0-6.884 0.281-8.342 1.729l-2.749-1.644 11.091-4.655zM5.002 20.321c0-0.616 2.73-1.768 7.949-1.768 5.222 0 7.954 1.151 7.954 1.767s-2.732 1.768-7.954 1.768c-5.219 0-7.949-1.151-7.949-1.768z"></path>
<path fill="#ff6b09" style="fill: var(--color1, #ff6b09)" d="M22.301 28.271c-0.694 0-1.26 0.565-1.26 1.26s0.565 1.26 1.26 1.26 1.26-0.565 1.26-1.26c0-0.694-0.565-1.26-1.26-1.26zM22.301 30.030c-0.264-0.014-0.473-0.232-0.473-0.498s0.209-0.484 0.472-0.498l0.001-0c0.275 0 0.498 0.223 0.498 0.498s-0.223 0.498-0.498 0.498v0zM23.755 2.090h-2.907v0.762h2.907v-0.762z"></path>
</symbol>
<symbol id="icon-how-we-do-open-book" viewBox="0 0 46 32">
<path fill="currentColor" style="fill: currentColor" d="M20.267 4.608h-13.64v1.021h13.64v-1.021zM20.267 8.416h-11.597v1.021h11.597v-1.021zM20.267 12.224h-13.64v1.021h13.64v-1.021zM20.267 16.032h-11.597v1.021h11.597v-1.021zM20.267 19.84h-13.64v1.021h13.64v-1.021zM20.267 23.648h-11.597v1.021h11.597v-1.021zM38.99 4.608h-13.64v1.021h13.64v-1.021zM36.947 8.416h-11.597v1.021h11.596v-1.021zM38.99 12.224h-13.64v1.021h13.64v-1.021zM36.947 16.032h-11.597v1.021h11.596v-1.021zM38.99 19.84h-13.64v1.021h13.64v-1.021zM36.947 23.648h-11.597v1.021h11.596v-1.021z"></path>
<path fill="currentColor" style="currentColor" d="M43.915 3.445h-1.872v-2.812c0-0.282-0.229-0.511-0.511-0.511v0h-15.265c-0.005-0-0.011-0-0.018-0-1.469 0-2.75 0.802-3.43 1.991l-0.010 0.019c-0.691-1.209-1.973-2.011-3.442-2.011-0.006 0-0.012 0-0.017 0h-15.264c-0.282 0-0.511 0.229-0.511 0.511v0 2.812h-1.873c-0.282 0-0.511 0.229-0.511 0.511v0 27.411c0 0.282 0.229 0.511 0.511 0.511h42.213c0.282-0 0.51-0.229 0.51-0.511 0 0 0 0 0 0v0-27.411c0-0.282-0.229-0.511-0.511-0.511v0zM26.267 1.144h14.753v27.349h-15.842c-0.703 0-1.405 0.296-1.859 0.68v-25.088c0-0.003 0-0.006 0-0.009 0-1.619 1.313-2.932 2.932-2.932 0.005 0 0.010 0 0.015 0h-0.001zM4.596 1.144h14.753c0.006-0 0.013-0 0.020-0 1.581 0 2.869 1.255 2.922 2.824l0 0.005c0.001 0.022 0.003 0.091 0.007 0.113v25.087c-0.453-0.383-1.148-0.678-1.852-0.678h-15.85v-27.35zM2.213 4.467h1.362v24.538c0 0.282 0.229 0.511 0.511 0.511h16.36c0.779 0 1.531 0.511 1.772 1.341h-20.005v-26.389zM43.404 30.856h-20.004c0.227-0.78 0.936-1.341 1.775-1.341 0.001 0 0.002 0 0.003 0h16.353c0 0 0 0 0.001 0 0.282 0 0.511-0.229 0.511-0.511v0-24.538h1.361v26.389z"></path>
</symbol>
<symbol id="icon-how-we-do-study-program" viewBox="0 0 31 32">
<path fill="currentColor" style="fill: currentColor" d="M30.151 4.961l-0.001-0.003c-0.007-0.017-0.015-0.032-0.025-0.046l0.001 0.001-0.003-0.003c-0.010-0.016-0.021-0.029-0.033-0.042l-4.807-4.806c-0.012-0.012-0.025-0.023-0.039-0.032l-0.001-0.001c-0.003-0.002-0.007-0.003-0.009-0.006-0.010-0.006-0.022-0.013-0.034-0.019l-0.002-0.001-0.011-0.004c-0.029-0.012-0.063-0.019-0.098-0.020h-21.177c-0.157 0-0.283 0.127-0.283 0.284 0 0 0 0 0 0v0 29.311c0 0.019 0.001 0.037 0.005 0.055l0.007 0.023 0.010 0.030c0.003 0.009 0.009 0.017 0.013 0.025 0.004 0.007 0.007 0.016 0.013 0.023 0.010 0.015 0.021 0.028 0.033 0.040l2.167 2.167c0.051 0.051 0.122 0.083 0.201 0.083s0.149-0.032 0.201-0.083v0l1.965-1.964 1.964 1.964c0.051 0.052 0.122 0.084 0.201 0.084s0.15-0.032 0.201-0.084l1.963-1.963 1.965 1.963c0.051 0.051 0.122 0.083 0.201 0.083s0.149-0.032 0.201-0.083v0l1.963-1.963 1.964 1.963c0.051 0.051 0.122 0.083 0.201 0.083s0.149-0.032 0.201-0.083v0l1.965-1.964 1.964 1.964c0.051 0.052 0.122 0.084 0.201 0.084s0.149-0.032 0.201-0.084l1.964-1.963 1.965 1.963c0.051 0.051 0.122 0.083 0.201 0.083s0.149-0.032 0.201-0.083v0l2.165-2.165 0.011-0.013c0.008-0.009 0.017-0.019 0.024-0.029 0.007-0.009 0.011-0.020 0.016-0.030 0.004-0.007 0.007-0.012 0.009-0.019 0.007-0.013 0.009-0.027 0.013-0.040l0.005-0.013c0.003-0.017 0.005-0.036 0.005-0.056 0-0 0-0.001 0-0.001v0-24.503c-0.001-0.039-0.009-0.077-0.023-0.111l0.001 0.002zM25.367 0.949l3.836 3.835h-3.836v-3.835zM29.604 29.456l-1.88 1.88-1.965-1.964c-0.051-0.051-0.122-0.083-0.201-0.083s-0.149 0.032-0.201 0.083v0l-1.963 1.964-1.964-1.964c-0.051-0.051-0.122-0.083-0.201-0.083s-0.149 0.032-0.201 0.083v0l-1.965 1.964-1.963-1.964c-0.051-0.052-0.122-0.084-0.201-0.084s-0.15 0.032-0.201 0.084v0l-1.963 1.964-1.965-1.964c-0.052-0.051-0.123-0.083-0.201-0.083s-0.149 0.032-0.201 0.083v0l-1.963 1.964-1.964-1.964c-0.052-0.051-0.123-0.083-0.201-0.083s-0.149 0.032-0.201 0.083v0l-1.964 1.964-1.88-1.88v-28.909h20.603v4.522c0 0.157 0.127 0.284 0.284 0.284h4.521v24.103z"></path>
<path fill="currentColor" style="fill: currentColor" d="M6.313 3.234h9.303c0.157 0 0.284-0.127 0.284-0.284s-0.127-0.284-0.284-0.284h-9.303c-0.157 0-0.284 0.127-0.284 0.284s0.127 0.284 0.284 0.284v0zM6.313 4.991h14.92c0.157 0 0.284-0.127 0.284-0.284s-0.127-0.284-0.284-0.284h-14.92c-0.157 0-0.284 0.127-0.284 0.284s0.127 0.284 0.284 0.284v0zM6.029 6.568v9.199c0 0.157 0.127 0.284 0.285 0.284h21.172c0.157 0 0.284-0.127 0.284-0.284v0-9.199c0-0.157-0.127-0.284-0.284-0.284v0h-21.173c-0 0-0 0-0.001 0-0.157 0-0.284 0.127-0.284 0.284 0 0 0 0 0 0v0zM12.308 6.852h14.893v2.445h-14.893v-2.445zM12.308 9.865h14.893v2.444h-14.893v-2.444zM12.308 12.877h14.893v2.605h-14.893v-2.605zM6.598 6.852h5.142v2.445h-5.142v-2.445zM6.598 9.865h5.142v2.444h-5.142v-2.444zM6.598 12.877h5.142v2.605h-5.142v-2.605zM27.486 17.329h-21.173c-0 0-0 0-0.001 0-0.157 0-0.284 0.127-0.284 0.284 0 0 0 0 0 0v0 9.198c0 0.157 0.127 0.284 0.284 0.284s0.284-0.127 0.284-0.284v-2.889h5.143v2.889c0 0.157 0.127 0.284 0.284 0.284s0.284-0.127 0.284-0.284v0-2.889h14.893v2.889c0 0.157 0.127 0.284 0.284 0.284s0.284-0.127 0.284-0.284v0-9.198c0-0 0-0.001 0-0.001 0-0.156-0.127-0.283-0.283-0.283-0 0-0 0-0.001 0h0zM11.74 23.353h-5.142v-2.443h5.142v2.443zM11.74 20.341h-5.142v-2.444h5.142v2.444zM27.201 23.353h-14.893v-2.443h14.893v2.443zM27.201 20.341h-14.893v-2.444h14.893v2.444zM2.281-0.021c-0.157 0-0.284 0.127-0.284 0.284v29.311c0 0.157 0.127 0.284 0.284 0.284s0.284-0.127 0.284-0.284v0-29.311c0-0.157-0.127-0.284-0.284-0.284v0zM0.718-0.021c-0.157 0-0.284 0.127-0.284 0.284v29.311c0 0.157 0.127 0.284 0.284 0.284s0.284-0.127 0.284-0.284v0-29.311c0-0.157-0.127-0.284-0.284-0.284v0z"></path>
</symbol>
<symbol id="icon-vk" viewBox="0 0 32 32">
<path fill="#436eab" style="fill: var(--color5, #436eab)" d="M27.541 18.46c1.060 1.037 2.181 2.012 3.133 3.152 0.421 0.508 0.819 1.030 1.123 1.619 0.432 0.836 0.042 1.757-0.709 1.807l-4.661-0.002c-1.202 0.099-2.161-0.384-2.969-1.206-0.645-0.658-1.243-1.358-1.863-2.037-0.246-0.281-0.521-0.527-0.824-0.736l-0.015-0.010c-0.637-0.413-1.189-0.287-1.553 0.377-0.37 0.676-0.454 1.423-0.491 2.176-0.050 1.098-0.382 1.387-1.485 1.436-2.356 0.112-4.593-0.245-6.67-1.434-1.833-1.049-3.253-2.528-4.489-4.203-2.407-3.262-4.251-6.845-5.907-10.529-0.373-0.831-0.1-1.276 0.815-1.292 1.521-0.030 3.042-0.028 4.564-0.002 0.619 0.009 1.027 0.363 1.266 0.947 0.822 2.023 1.829 3.948 3.093 5.732 0.336 0.475 0.679 0.949 1.168 1.284 0.541 0.37 0.953 0.247 1.206-0.354 0.162-0.382 0.233-0.794 0.269-1.202 0.121-1.408 0.137-2.812-0.075-4.213-0.13-0.876-0.623-1.442-1.495-1.609-0.446-0.084-0.38-0.25-0.164-0.505 0.374-0.437 0.727-0.711 1.429-0.711h5.269c0.829 0.164 1.013 0.537 1.127 1.371l0.004 5.853c-0.010 0.323 0.161 1.282 0.743 1.495 0.465 0.153 0.772-0.22 1.052-0.515 1.262-1.339 2.162-2.922 2.965-4.56 0.357-0.72 0.665-1.469 0.962-2.215 0.221-0.555 0.565-0.828 1.191-0.816l5.070 0.004c0.151 0 0.303 0.002 0.448 0.028 0.855 0.145 1.089 0.512 0.826 1.347-0.416 1.309-1.225 2.4-2.016 3.495-0.846 1.17-1.749 2.301-2.589 3.477-0.77 1.075-0.709 1.617 0.247 2.55z"></path>
</symbol>
<symbol id="icon-arrow-left" viewBox="0 0 54 32">
<path fill="#ff6b09" style="fill: var(--color1, #ff6b09)" d="M52 14c1.105 0 2 0.895 2 2s-0.895 2-2 2v0-4zM0.586 17.414c-0.362-0.362-0.586-0.862-0.586-1.414s0.224-1.052 0.586-1.414l12.728-12.728c0.357-0.335 0.838-0.541 1.368-0.541 1.105 0 2 0.895 2 2 0 0.53-0.206 1.012-0.543 1.37l0.001-0.001-11.312 11.314 11.314 11.314c0.377 0.364 0.611 0.874 0.611 1.439 0 1.105-0.895 2-2 2-0.565 0-1.074-0.234-1.438-0.61l-0.001-0.001-12.728-12.728zM52 18h-50v-4h50v4z"></path>
</symbol>
<symbol id="icon-arrow-right" viewBox="0 0 54 32">
<path fill="#ff6b09" style="fill: var(--color1, #ff6b09)" d="M2 14c-1.105 0-2 0.895-2 2s0.895 2 2 2v0-4zM53.414 17.414c0.362-0.362 0.586-0.862 0.586-1.414s-0.224-1.052-0.586-1.414l-12.728-12.728c-0.364-0.377-0.874-0.611-1.439-0.611-1.105 0-2 0.895-2 2 0 0.565 0.234 1.074 0.61 1.438l0.001 0.001 11.314 11.314-11.314 11.314c-0.347 0.359-0.561 0.849-0.561 1.389 0 1.105 0.895 2 2 2 0.54 0 1.030-0.214 1.39-0.562l-0.001 0.001 12.728-12.728zM2 18h50v-4h-50v4z"></path>
</symbol>
</defs>
</svg>
